<svg width="25" height="24" viewBox="0 0 25 24" fill="none" xmlns="http://www.w3.org/2000/svg">
<path fill-rule="evenodd" clip-rule="evenodd" d="M18.3026 6.03756C16.5735 4.33116 13.794 4.33116 12.0648 6.03756L10.4491 7.63197C10.0953 7.98111 9.52551 7.97733 9.17637 7.62354C8.82724 7.26975 8.83102 6.69991 9.18481 6.35078L10.8005 4.75636C13.2306 2.35823 17.1368 2.35823 19.567 4.75636C22.0431 7.19987 22.0431 11.1963 19.5669 13.6398L18.052 15.1348C17.6982 15.4839 17.1284 15.4801 16.7793 15.1263C16.4301 14.7725 16.4339 14.2027 16.7877 13.8536L18.3026 12.3586C20.0645 10.6199 20.0645 7.77625 18.3026 6.03756ZM8.22143 8.56591C8.57056 8.91971 8.56679 9.48954 8.21299 9.83868L6.69807 11.3336C4.93619 13.0723 4.93619 15.916 6.69807 17.6547C8.42724 19.3611 11.2067 19.3611 12.9359 17.6547L14.5516 16.0603C14.9054 15.7111 15.4752 15.7149 15.8243 16.0687C16.1735 16.4225 16.1697 16.9923 15.8159 17.3415L14.2002 18.9359C11.7701 21.334 7.86388 21.334 5.43374 18.9359C2.95763 16.4924 2.95763 12.496 5.43375 10.0524L6.94866 8.55748C7.30246 8.20834 7.87229 8.21212 8.22143 8.56591ZM15.3771 9.00725C15.7262 9.36105 15.7225 9.93088 15.3687 10.28L10.8964 14.6934C10.5426 15.0426 9.97274 15.0388 9.6236 14.685C9.27447 14.3312 9.27824 13.7614 9.63204 13.4122L14.1043 8.99882C14.4581 8.64968 15.028 8.65346 15.3771 9.00725Z" fill="#007AFF"/>
</svg>
