<svg width="24" height="24" viewBox="0 0 24 24" fill="none" xmlns="http://www.w3.org/2000/svg">
<path fill-rule="evenodd" clip-rule="evenodd" d="M2.09998 7.99998C2.09998 7.50292 2.50292 7.09998 2.99998 7.09998H21C21.497 7.09998 21.9 7.50292 21.9 7.99998C21.9 8.49703 21.497 8.89998 21 8.89998H2.99998C2.50292 8.89998 2.09998 8.49703 2.09998 7.99998ZM2.09998 12C2.09998 11.5029 2.50292 11.1 2.99998 11.1H21C21.497 11.1 21.9 11.5029 21.9 12C21.9 12.497 21.497 12.9 21 12.9H2.99998C2.50292 12.9 2.09998 12.497 2.09998 12ZM2.09998 16C2.09998 15.5029 2.50292 15.1 2.99998 15.1H21C21.497 15.1 21.9 15.5029 21.9 16C21.9 16.497 21.497 16.9 21 16.9H2.99998C2.50292 16.9 2.09998 16.497 2.09998 16Z" fill="#007AFF"/>
</svg>
